# File created by Blade
# Date/Time:  Thu Jan 22 15:49:58 2015
# Frame Rate: 120.000 fps
#------------------------------------------------------
:FULLY-SPECIFIED
:DEGREES
823
root 2.874569 37.104215 4.695120 -5.388596 -1.505005 2.320764
RightUpLeg 13.375820 -6.764880 -5.097564
RightLeg -5.009236 -0.000000 0.000000
RightFoot -11.860232 -13.211572 16.367610
RightToeBase 14.259939 -0.000000 -0.000000
LeftUpLeg 11.397621 4.782873 2.675876
LeftLeg -2.368808 -0.000000 0.000000
LeftFoot -6.781169 7.147823 -16.986477
LeftToeBase 8.571844 -0.000000 -0.000000
Spine 3.684159 -4.174053 -3.164085
RightShoulder -9.146316 11.508998 -46.710981
RightArm 77.791581 65.096941 80.766042
RightForeArm 45.528629 0.000000 85.380213
RightHand 16.167603 -0.000000 -6.274681
RightHandThumb1 -24.326973 -0.000000 -32.862282
LeftShoulder -20.670856 20.719294 33.296470
LeftArm 97.221326 -63.120239 -83.844681
LeftForeArm -8.912603 -0.000000 52.949373
LeftHand -18.805400 -0.000000 2.311952
LeftHandThumb1 -26.253704 0.000000 33.147579
Head 37.329607 11.372035 3.881542
824
root 2.865810 37.101992 4.685190 -5.374364 -1.549394 2.303211
RightUpLeg 13.378438 -6.710586 -5.071400
RightLeg -5.077715 -0.000000 0.000000
RightFoot -11.822342 -13.174066 16.404193
RightToeBase 14.287884 -0.000000 -0.000000
LeftUpLeg 11.379238 4.780367 2.704326
LeftLeg -2.377690 -0.000000 0.000000
LeftFoot -6.795945 7.179747 -16.980369
LeftToeBase 8.556929 -0.000000 -0.000000
Spine 3.746885 -4.151713 -3.220197
RightShoulder -9.444623 11.633809 -47.016928
RightArm 80.459590 64.414555 82.557022
RightForeArm 45.837731 -0.000000 86.874249
RightHand 16.217509 -0.000000 -6.313652
RightHandThumb1 -24.326973 -0.000000 -32.862282
LeftShoulder -20.738977 20.663411 33.660148
LeftArm 99.428614 -62.937681 -85.463637
LeftForeArm -10.180653 -0.000000 54.072097
LeftHand -18.423515 -0.000000 1.998898
LeftHandThumb1 -26.253704 0.000000 33.147579
Head 37.551556 11.299382 3.977247
825
root 2.862330 37.099180 4.673424 -5.331686 -1.610670 2.311069
RightUpLeg 13.274806 -6.847106 -5.093447
RightLeg -5.009315 -0.000000 0.000000
RightFoot -11.848016 -12.992766 16.365927
RightToeBase 14.392506 -0.000000 -0.000000
LeftUpLeg 11.324993 4.806457 2.697500
LeftLeg -2.373673 -0.000000 0.000000
LeftFoot -6.811941 7.208715 -16.986966
LeftToeBase 8.552115 -0.000000 -0.000000
Spine 3.779437 -4.105493 -3.287489
RightShoulder -9.785252 11.674263 -47.378414
RightArm 82.972707 63.711985 84.258157
RightForeArm 46.042809 -0.000000 88.416224
RightHand 16.245134 -0.000000 -6.527718
RightHandThumb1 -24.326973 -0.000000 -32.862282
LeftShoulder -20.756639 20.353047 34.132848
LeftArm 101.083983 -62.690387 -86.640618
LeftForeArm -11.426109 -0.000000 55.230045
LeftHand -18.076341 -0.000000 1.486281
LeftHandThumb1 -26.253704 0.000000 33.147579
Head 37.703296 11.226596 4.023536
826
root 2.854072 37.096976 4.662064 -5.303760 -1.663023 2.309444
RightUpLeg 13.221078 -6.892106 -5.088786
RightLeg -5.004089 -0.000000 0.000000
RightFoot -11.828043 -12.892685 16.308648
RightToeBase 14.379117 -0.000000 -0.000000
LeftUpLeg 11.285719 4.815966 2.707827
LeftLeg -2.371619 -0.000000 0.000000
LeftFoot -6.823896 7.239013 -16.983713
LeftToeBase 8.539039 -0.000000 -0.000000
Spine 3.822122 -4.116558 -3.387758
RightShoulder -10.041537 11.917129 -47.637717
RightArm 84.970633 63.024736 85.349259
RightForeArm 46.369252 0.000000 89.893429
RightHand 16.279072 -0.000000 -6.493339
RightHandThumb1 -24.326973 -0.000000 -32.862282
LeftShoulder -20.804181 19.735348 34.840326
LeftArm 101.787981 -62.303714 -87.042707
LeftForeArm -12.601183 -0.000000 56.371489
LeftHand -17.560409 -0.000000 1.106499
LeftHandThumb1 -26.253704 0.000000 33.147579
Head 37.914235 11.152848 4.128451
827
root 2.847212 37.094853 4.655889 -5.293549 -1.714441 2.305672
RightUpLeg 13.203120 -6.925683 -5.084105
RightLeg -5.019599 -0.000000 0.000000
RightFoot -11.820805 -12.800386 16.288025
RightToeBase 14.422360 -0.000000 -0.000000
LeftUpLeg 11.274289 4.854103 2.723824
LeftLeg -2.373497 -0.000000 0.000000
LeftFoot -6.839722 7.255104 -16.982215
LeftToeBase 8.546700 -0.000000 -0.000000
Spine 3.892911 -4.098221 -3.459303
RightShoulder -10.343520 12.027818 -47.984758
RightArm 87.072333 62.352880 86.634846
RightForeArm 46.775459 0.000000 91.405416
RightHand 16.287304 0.000000 -6.390359
RightHandThumb1 -24.326973 -0.000000 -32.862282
LeftShoulder -20.861172 19.585172 35.219794
LeftArm 103.668453 -62.083731 -88.351886
LeftForeArm -13.893848 0.000000 57.490602
LeftHand -17.250911 -0.000000 0.630737
LeftHandThumb1 -26.253704 0.000000 33.147579
Head 38.086189 11.054402 4.134054
828
root 2.841170 37.092783 4.644503 -5.261393 -1.774370 2.312613
RightUpLeg 13.170745 -6.918579 -5.081490
RightLeg -5.074498 -0.000000 0.000000
RightFoot -11.786084 -12.754528 16.259096
RightToeBase 14.453089 -0.000000 -0.000000
LeftUpLeg 11.228218 4.866170 2.719547
LeftLeg -2.367273 -0.000000 0.000000
LeftFoot -6.849046 7.310285 -16.969744
LeftToeBase 8.512773 -0.000000 -0.000000
Spine 3.932679 -4.109572 -3.549659
RightShoulder -10.611284 12.133760 -48.267208
RightArm 89.045340 61.656364 87.674912
RightForeArm 47.294320 0.000000 92.872349
RightHand 16.307292 -0.000000 -6.460573
RightHandThumb1 -24.326973 -0.000000 -32.862282
LeftShoulder -20.904524 19.479679 35.567103
LeftArm 105.546367 -61.899599 -89.590410
LeftForeArm -15.174524 0.000000 58.583971
LeftHand -16.922919 -0.000000 0.185189
LeftHandThumb1 -26.253704 0.000000 33.147579
Head 38.259127 11.035178 4.182761
829
root 2.835484 37.089851 4.639422 -5.256961 -1.820778 2.322321
RightUpLeg 13.166065 -6.977406 -5.091537
RightLeg -5.107391 -0.000000 0.000000
RightFoot -11.782808 -12.676591 16.253218
RightToeBase 14.489219 -0.000000 -0.000000
LeftUpLeg 11.224580 4.894191 2.719838
LeftLeg -2.371984 -0.000000 0.000000
LeftFoot -6.861130 7.319289 -16.978184
LeftToeBase 8.529237 -0.000000 -0.000000
Spine 4.026088 -4.134878 -3.650564
RightShoulder -10.934976 12.285077 -48.595695
RightArm 90.758595 60.976593 88.530151
RightForeArm 47.830666 -0.000000 94.332831
RightHand 16.290099 -0.000000 -6.208039
RightHandThumb1 -24.326973 -0.000000 -32.862282
LeftShoulder -21.043202 19.311395 35.892885
LeftArm 107.335480 -61.621959 -90.706243
LeftForeArm -16.379299 -0.000000 59.564342
LeftHand -16.371555 -0.000000 -0.473197
LeftHandThumb1 -26.253704 0.000000 33.147579
Head 38.424833 11.106817 4.272682
